<svg xmlns:xlink="http://www.w3.org/1999/xlink" xmlns="http://www.w3.org/2000/svg" viewBox="0 0 32 32" fill="none" width="18" height="18"><g clip-path="url(#clip0_369_257)" fill="none"><path d="M0 0V32H32V0H0Z" fill="#FF5500"></path><path d="M18.464 24.288H13.536V27.984H18.464V24.288Z" fill="#FFCB9C"></path><path d="M16.144 2.8H15.872C12.896 2.8 10.464 5.248 10.464 8.272V15.328C10.464 18.352 12.88 20.8 15.872 20.8H16.144C19.12 20.8 21.552 18.352 21.552 15.328V8.272C21.552 5.248 19.136 2.8 16.144 2.8Z" fill="#FFF5F1"></path><path d="M20.048 28.384C20.048 29.472 11.936 29.472 11.936 28.384V26.24C11.936 27.104 20.048 27.104 20.048 26.24V28.384Z" fill="#FFE3C9"></path><path d="M23.28 12.528V16.08C23.28 19.824 20.128 22.864 16.24 22.864H15.744C11.872 22.864 8.704 19.824 8.704 16.08V12.528C8.704 11.776 5.888 11.776 5.888 12.528V16.08C5.888 21.328 10.304 25.584 15.728 25.584H16.224C21.648 25.584 26.064 21.312 26.064 16.08V12.528C26.064 11.776 23.248 11.776 23.248 12.528H23.28Z" fill="#FFF5F1"></path></g><defs><clipPath id="clip0_369_257"><rect width="32" height="32" fill="white"></rect></clipPath></defs></svg>