<svg xmlns:xlink="http://www.w3.org/1999/xlink" xmlns="http://www.w3.org/2000/svg" viewBox="0 0 32 32" fill="none" width="18" height="18"><g clip-path="url(#clip0_369_221)" fill="none"><path d="M0 0V32H32V0H0Z" fill="#DB0042"></path><path d="M20.176 3.36L7.056 18.8L13.072 24.816L28.528 11.696L28.608 3.264L20.176 3.36Z" fill="#FFFFFF"></path><path d="M9.488 24.496C11.76 26.64 13.952 28.32 14.416 27.856L17.472 24.8L7.088 14.4L4.016 17.472C3.552 17.936 5.232 20.128 7.36 22.384L4.208 25.536L6.336 27.664L9.488 24.512V24.496Z" fill="#F2C3BF"></path><path d="M6.208 28.8C5.632 29.376 2.496 26.24 3.072 25.664L4.72 24.016C4.352 24.384 7.488 27.52 7.856 27.152L6.208 28.816V28.8Z" fill="#E6819E"></path></g><defs><clipPath id="clip0_369_221"><rect width="32" height="32" fill="white"></rect></clipPath></defs></svg>