<svg id="Label" xmlns="http://www.w3.org/2000/svg" xmlns:xlink="http://www.w3.org/1999/xlink" viewBox="0 0 20 20" width="18" height="18"><defs><linearGradient id="gift-blue-gradient" x1="21.07" y1="21.4" x2="5.82" y2="-1.12" gradientUnits="userSpaceOnUse"><stop offset="0" stop-color="#2e69ff"></stop><stop offset=".19" stop-color="#1c70ff"></stop><stop offset="1" stop-color="#00b7ff"></stop></linearGradient><linearGradient id="gift-blue-gradient-2" x1="17.42" y1="23.87" x2="2.17" y2="1.35" xlink:href="#gift-blue-gradient"></linearGradient><linearGradient id="gift-blue-gradient-3" x1="14.46" y1="25.88" x2="-.8" y2="3.36" xlink:href="#gift-blue-gradient"></linearGradient><linearGradient id="gift-blue-gradient-4" x1="11.51" y1="27.88" x2="-3.75" y2="5.36" xlink:href="#gift-blue-gradient"></linearGradient><linearGradient id="gift-blue-gradient-5" x1="21.77" y1="20.93" x2="6.51" y2="-1.59" xlink:href="#gift-blue-gradient"></linearGradient><linearGradient id="gift-blue-gradient-6" x1="18.14" y1="23.39" x2="2.88" y2=".87" xlink:href="#gift-blue-gradient"></linearGradient><linearGradient id="gift-blue-gradient" x1="21.07" y1="21.4" x2="5.82" y2="-1.12" gradientUnits="userSpaceOnUse"><stop offset="0" stop-color="#2e69ff"></stop><stop offset=".19" stop-color="#1c70ff"></stop><stop offset="1" stop-color="#00b7ff"></stop></linearGradient><linearGradient id="gift-blue-gradient-2" x1="17.42" y1="23.87" x2="2.17" y2="1.35" xlink:href="#gift-blue-gradient"></linearGradient><linearGradient id="gift-blue-gradient-3" x1="14.46" y1="25.88" x2="-.8" y2="3.36" xlink:href="#gift-blue-gradient"></linearGradient><linearGradient id="gift-blue-gradient-4" x1="11.51" y1="27.88" x2="-3.75" y2="5.36" xlink:href="#gift-blue-gradient"></linearGradient><linearGradient id="gift-blue-gradient-5" x1="21.77" y1="20.93" x2="6.51" y2="-1.59" xlink:href="#gift-blue-gradient"></linearGradient><linearGradient id="gift-blue-gradient-6" x1="18.14" y1="23.39" x2="2.88" y2=".87" xlink:href="#gift-blue-gradient"></linearGradient><linearGradient id="gift-blue-gradient" x1="21.07" y1="21.4" x2="5.82" y2="-1.12" gradientUnits="userSpaceOnUse"><stop offset="0" stop-color="#2e69ff"></stop><stop offset=".19" stop-color="#1c70ff"></stop><stop offset="1" stop-color="#00b7ff"></stop></linearGradient><linearGradient id="gift-blue-gradient-2" x1="17.42" y1="23.87" x2="2.17" y2="1.35" xlink:href="#gift-blue-gradient"></linearGradient><linearGradient id="gift-blue-gradient-3" x1="14.46" y1="25.88" x2="-.8" y2="3.36" xlink:href="#gift-blue-gradient"></linearGradient><linearGradient id="gift-blue-gradient-4" x1="11.51" y1="27.88" x2="-3.75" y2="5.36" xlink:href="#gift-blue-gradient"></linearGradient><linearGradient id="gift-blue-gradient-5" x1="21.77" y1="20.93" x2="6.51" y2="-1.59" xlink:href="#gift-blue-gradient"></linearGradient><linearGradient id="gift-blue-gradient-6" x1="18.14" y1="23.39" x2="2.88" y2=".87" xlink:href="#gift-blue-gradient"></linearGradient></defs><path fill="url(&quot;#gift-blue-gradient&quot;)" d="m10.96,3.23v-1.59c0-.42-.34-.76-.76-.76h-.85c-1.84,0-3.34,1.49-3.34,3.34h3.96c.55,0,.99-.44.99-.99Z"></path><path fill="url(&quot;#gift-blue-gradient-2&quot;)" d="m2.67.88h-.85c-.42,0-.76.34-.76.76v1.59c0,.55.44.99.99.99h3.96c0-1.84-1.49-3.34-3.34-3.34Z"></path><path fill="url(&quot;#gift-blue-gradient-3&quot;)" d="m.07,7.19v3.96h5.48v-4.95H1.06c-.55,0-.99.44-.99.99Z"></path><path fill="url(&quot;#gift-blue-gradient-4&quot;)" d="m1.06,18.08c0,.55.44.99.99.99h3.5v-5.94H1.06v4.95Z"></path><path fill="url(&quot;#gift-blue-gradient-5&quot;)" d="m18.88,6.2H7.52v4.95h12.34v-3.96c0-.55-.44-.99-.99-.99Z"></path><path fill="url(&quot;#gift-blue-gradient-6&quot;)" d="m7.52,19.07h10.36c.55,0,.99-.44.99-.99v-4.95H7.52v5.94Z"></path></svg>